<svg width="460" height="56" viewBox="0 0 460 56" fill="none" xmlns="http://www.w3.org/2000/svg">
<g filter="url(#filter0_i_50_145)">
<path d="M0 28C0 12.536 12.536 0 28 0H432C447.464 0 460 12.536 460 28C460 43.464 447.464 56 432 56H28C12.536 56 0 43.464 0 28Z" fill="#F5FFE9"/>
</g>
<path d="M0.5 28C0.5 12.8122 12.8122 0.5 28 0.5H432C447.188 0.5 459.5 12.8122 459.5 28C459.5 43.1878 447.188 55.5 432 55.5H28C12.8122 55.5 0.5 43.1878 0.5 28Z" stroke="black"/>
<defs>
<filter id="filter0_i_50_145" x="0" y="0" width="460" height="60" filterUnits="userSpaceOnUse" color-interpolation-filters="sRGB">
<feFlood flood-opacity="0" result="BackgroundImageFix"/>
<feBlend mode="normal" in="SourceGraphic" in2="BackgroundImageFix" result="shape"/>
<feColorMatrix in="SourceAlpha" type="matrix" values="0 0 0 0 0 0 0 0 0 0 0 0 0 0 0 0 0 0 127 0" result="hardAlpha"/>
<feOffset dy="4"/>
<feGaussianBlur stdDeviation="2"/>
<feComposite in2="hardAlpha" operator="arithmetic" k2="-1" k3="1"/>
<feColorMatrix type="matrix" values="0 0 0 0 0 0 0 0 0 0 0 0 0 0 0 0 0 0 0.25 0"/>
<feBlend mode="normal" in2="shape" result="effect1_innerShadow_50_145"/>
</filter>
</defs>
</svg>
